<?xml version="1.0" encoding="UTF-8"?><svg id="Layer_2" xmlns="http://www.w3.org/2000/svg" viewBox="0 0 949.33 949.33"><defs><style>.cls-1{fill:#fff;}</style></defs><g id="Layer_1-2"><rect width="949.33" height="949.33" rx="82.26" ry="82.26"/><g><path class="cls-1" d="M743.42,753.95c25.57-28.54,45.03-61,59.52-96.31,32.55-79.33,42.11-161.61,29.19-246.31-9.12-59.8-29.46-115.6-62.76-166.37-24.52-37.38-54.23-69.57-94.03-91.1-29.85-16.15-61.49-22.04-95.12-14.84-26.2,5.61-48.89,18-69.17,35.16-4.04,3.42-8.19,3.72-14.9,2.47-32.18-6.03-65.14-5.45-97.42,.02-8.48,1.44-15.34,.89-22.15-2.62-20.65-10.66-42.2-18.76-65.58-20.57-26.46-2.04-51.27,4.17-74.51,16.64-38.25,20.51-65.91,51.88-87.98,88.36-35.15,58.1-52.07,121.93-57.19,189.19-2.58,33.89-1.46,67.71,2.99,101.41,8.66,65.51,30.23,126.19,68.21,180.58,20.35,29.13,44.26,54.83,75.03,73.34,19.11,11.5,39.31,19.83,62.12,20.35,12.61,.29,24.84-1.76,37.04-4.51,3.79-.87,7.67-1.31,11.36-2.71,16.2-6.14,31.13-14.49,44.54-25.48,8.48-6.43,16.05-13.86,23.37-21.53,2.79-2.93,5.89-4.25,9.97-4.24,25.66,.1,51.32,.09,76.98,.01,3.18,0,5.93,.67,8.47,2.26,1.19,.75,2.06,1.9,2.6,3.19,3.99,9.49,53.35,55.55,146.1,52.91,40.9-1.16,116.19-.93,116.19-.93,13.43-.72,23.24-12.6,22.43-24.8-.88-13.14-11.21-22.92-24.7-23.28-4.28-.12-8.56,.03-12.84-.07-12.05-.27-24.14,.25-37.14-.86,6.93-6.89,13.52-12.81,19.4-19.37ZM611.61,227.03c55.72,35.34,91.32,85.83,111.25,148.07,.19,.6,.15,1.28,.29,2.65-24.39-31.1-49.69-60.45-77.03-88-27.25-27.46-56.38-52.73-87.9-76.17,20.19-3.2,37.31,3.24,53.4,13.45Zm-97.61-3.48c22.95,12.52,43.7,28.11,63.46,45.06,58.51,50.22,108.88,107.66,152.13,171.45,7.02,10.36,11.65,20.86,10.13,33.8-.9,7.73-.17,15.66-.17,23.5-36.64-55.71-77.61-107.49-123.06-155.69-45.47-48.21-94.65-92.18-151.13-128.15,18.09-3.29,33.64,1.86,48.65,10.04Zm-8.57,57.69c67.99,55.02,126.51,118.91,177.51,189.83,16.59,23.08,31.93,46.89,43.96,72.76,4.22,9.07,6.08,17.81,2.38,27.5-2.67,6.99-3.64,14.56-6.65,21.84-4.27-9.32-8.21-18.54-12.65-27.51-16.5-33.36-37.29-64-59.63-93.66-36-47.77-75.5-92.44-118.4-134.08-18.53-17.99-37.33-35.7-57.3-52.12-1.17-.96-2.32-2.12-3.01-3.43-7.86-14.77-17.72-28.24-27.89-43.11,23.18,11.89,42.68,26.59,61.69,41.98Zm11.97,123.41c-4.91-5.21-8.19-10.74-9.32-18.17-1.74-11.44-6.03-22.35-9.42-33.43-.25-.82-.62-1.58,.02-2.67,10.49,8.82,20.05,18.58,29.66,28.25,45.42,45.72,87.05,94.62,122.98,148.21,17.07,25.45,31.64,52.27,44.13,80.34,8.28,18.61,7.67,35.49-3.71,52.19-1.82,2.67-3.32,5.55-5.46,9.16-3.2-25.79-13.54-48.22-24.39-70.43-21.95-44.93-50.99-85.14-82.52-123.71-19.71-24.1-40.64-47.1-61.98-69.74Zm-89.3,324.77c-7.57,9.34-16.21,17.63-25.99,24.67-3.67,2.64-7.54,4.76-13.04,3.92,11.94-15.61,21.82-31.71,30.38-48.69,17.96-35.63,30.04-73.17,37.63-112.25,7.97-41.01,11.5-82.39,8.05-124.05-4.02-48.64-14.62-95.57-41.01-137.62-17.53-27.94-39.38-52.02-65.72-71.95-4.45-3.37-9.22-5.99-15.1-5.2-7.52,1.01-12.75,5.98-14.26,13.44-1.53,7.58,1.62,15.32,8.99,19.02,16.92,8.5,28.94,22.23,40.06,36.82,23.44,30.74,37.56,65.75,46.14,103.18,9.92,43.28,10.19,86.86,3.75,130.59-5.5,37.35-14.3,73.84-29.44,108.59-12.58,28.86-29.21,54.93-52.85,76.1-9.35,8.37-19.56,15.56-31.2,20.43-21.29,8.91-41.77,6.3-61.53-4.83-24.8-13.96-43.92-34.06-60.67-56.61-32.3-43.5-51.45-92.56-60.83-145.61-8.62-48.78-9.22-97.73-.83-146.56,8.64-50.35,24.45-98.09,55.47-139.54,19.46-26,42.39-48.28,72.11-62.67,24.85-12.03,49.58-11.01,74.29,.15,30.31,13.69,54.74,35.26,77.98,58.42,39.05,38.91,58.93,87.43,70.01,140.26,16.61,79.21,11.53,157.6-10.37,235.05-8.7,30.77-21.64,59.81-42.02,84.95Zm102.86-223.06c-5.69-6.47-8.87-13.02-8.61-21.93,.31-10.36-.97-20.77-2.6-32.35,12.2,14.21,23.75,27.45,35.08,40.88,28.97,34.36,54.24,71.21,75.66,110.78,5.2,9.6,6.23,17.72,0,26.99-4.25,6.32-7.35,13.42-12.67,19.86-4.11-19.71-12.8-36.73-21.91-53.57-17.82-32.96-40.29-62.62-64.95-90.66Zm163.83,236.14c-11.14,8.83-20.3,17.02-34.71,18.76-11.25,1.36-22.5,1.88-34.09-.15,8.44-4,5.76-2.85,8.57-4.05,32.4-13.83,56.47-37.34,76.41-65.62,30.02-42.57,46.96-90.27,55.41-141.32,5.93-35.79,7.93-71.78,3.85-107.84-9.55-84.33-40.77-158.31-105.15-216.01-19.84-17.78-41.7-32.62-67.06-45,13.68-1.07,25.45,1.1,36.99,4.92,26.84,8.87,48.7,25.29,67.95,45.42,40.95,42.79,66.69,93.93,81.71,150.77,13.9,52.63,16.49,105.9,8.56,159.77-7.85,53.26-45.6,135.16-53.79,148.73s-33.51,42.79-44.65,51.62Z"/><path class="cls-1" d="M298.56,416.16c-14.69-13.87-33.84-13.35-47.98,1.08-5.69,5.81-10.14,12.42-13.4,19.87-4.08,9.3-6.87,18.94-8.19,29.01-.49,3.74-1.5,6.27-6.28,5.68-4.38-.54-8.89-.11-13.34-.11v.06c-4.62,0-9.25-.1-13.86,.02-10.98,.29-19.03,8.53-19.04,19.37-.01,10.39,8.26,18.54,19.09,18.65,8.21,.08,16.43-.03,24.65-.04,7.52-.01,7.41,.02,8.89,7.22,3.33,16.31,8.95,31.54,20.66,43.96,15.47,16.41,36.36,16.48,51.76,0,3.99-4.27,7.34-9.06,9.8-14.35,13.89-29.92,15.29-60.91,7.56-92.58-3.49-14.3-9.37-27.49-20.31-37.82Z"/></g></g></svg>