<?xml version="1.0" encoding="UTF-8"?><svg id="Layer_2" xmlns="http://www.w3.org/2000/svg" viewBox="0 0 1546.4 245.73"><defs><style>.cls-1{fill:#fff;}</style></defs><g id="Layer_1-2"><g><path class="cls-1" d="M341.4,37.84h38.59l41.05,127.77,41.35-127.77h37.37l-61.26,169.12h-35.84"/><path class="cls-1" d="M575.42,105.57c13.48,0,26.65,2.45,39.21,7.66v-10.11c0-20.22-11.33-36.14-33.08-36.14-14.7,0-27.57,8.27-33.08,22.05l-32.47-7.35c7.96-28.79,37.68-44.11,66.16-44.11,39.21,0,67.39,26.65,67.39,67.08v102.31h-32.16l-1.22-25.73c-10.11,17.77-29.71,25.73-49.32,25.73-29.4,0-56.67-18.38-56.67-50.23,0-35.84,33.08-51.15,65.24-51.15Zm-.31,73.21c21.44,0,39.51-15.01,39.51-37.37v-3.68c-5.21-2.14-10.72-3.98-16.23-5.51-5.82-1.23-11.64-1.84-17.46-1.84-15.32,0-35.22,6.13-35.22,24.81,0,15.93,15.01,23.59,29.41,23.59Z"/><path class="cls-1" d="M769.6,37.84c39.82,0,59.42,32.36,59.42,70.03v99.36h-35.23V111.85c0-21.75-11.18-41.57-35.68-41.57-22.67,0-35.68,17.07-35.68,39.73v97.21h-35.23V49.84c0-6.63,5.37-12,12-12h70.4Z"/><path class="cls-1" d="M1222.96,37.57c39.82,0,59.42,32.36,59.42,70.03v99.36h-35.23V111.59c0-21.75-11.18-41.57-35.68-41.57-22.67,0-35.68,17.07-35.68,39.73v97.21h-35.3V111.59c0-21.75-11.18-41.57-35.68-41.57-22.67,0-35.68,17.07-35.68,39.73v97.21h-35.23V49.57c0-6.63,5.37-12,12-12h177.06Z"/><path class="cls-1" d="M924.9,105.57c13.48,0,26.65,2.45,39.21,7.66v-10.11c0-20.22-11.33-36.14-33.08-36.14-14.7,0-27.57,8.27-33.08,22.05l-32.47-7.35c7.96-28.79,37.68-44.11,66.16-44.11,39.21,0,67.39,26.65,67.39,67.08v102.31h-33.14l-.25-25.73c-10.11,17.77-29.71,25.73-49.32,25.73-29.4,0-56.67-18.38-56.67-50.23,0-35.84,33.08-51.15,65.24-51.15Zm-.31,73.21c21.44,0,39.51-15.01,39.51-37.37v-3.68c-5.21-2.14-10.72-3.98-16.23-5.51-5.82-1.23-11.64-1.84-17.46-1.84-15.32,0-35.22,6.13-35.22,24.81,0,15.93,15.01,23.59,29.41,23.59Z"/><path class="cls-1" d="M1464.92,37.57c47.78,0,81.48,36.45,81.48,84.54s-33.39,84.85-82.7,84.85-81.48-37.06-81.48-84.85,33.39-84.54,82.7-84.54Zm-46.56,84.54c0,26.65,16.85,52.99,45.95,52.99s45.95-25.73,45.95-52.99-16.23-52.68-45.95-52.68-45.95,25.12-45.95,52.68Z"/><rect class="cls-1" x="1316.49" y="37.84" width="35.23" height="169.12"/></g><path class="cls-1" d="M252.74,163.26c7.25,30.55-10.79,61.35-40.9,70.26-26.84,7.95-55.26,12.21-84.68,12.21s-57.83-4.27-84.67-12.21C12.39,224.61-5.65,193.81,1.6,163.26,15.16,106.14,45.17,55.4,86.35,16.31c22.91-21.75,58.74-21.75,81.65,0,41.17,39.09,71.18,89.83,84.74,146.95Z"/></g></svg>