<?xml version="1.0" encoding="UTF-8"?>
<svg id="Layer_2" data-name="Layer 2" xmlns="http://www.w3.org/2000/svg" viewBox="0 0 209.42 224.86">
  <defs>
    <style>
      .cls-1 {
        fill: #000;
        stroke-width: 0px;
      }
    </style>
  </defs>
  <g id="Layer_1-2" data-name="Layer 1">
    <g>
      <path class="cls-1" d="M104.71,25.34c5.16,0,10.25,1.36,14.72,3.95l49.92,28.82c9.08,5.24,14.73,15.02,14.73,25.5v57.64c0,10.49-5.64,20.26-14.73,25.5l-49.92,28.82c-4.47,2.58-9.56,3.95-14.72,3.95s-10.25-1.36-14.73-3.95l-49.92-28.82c-9.08-5.24-14.73-15.02-14.73-25.5v-57.64c0-10.49,5.64-20.26,14.73-25.5l49.92-28.82c4.47-2.58,9.56-3.95,14.73-3.95M104.71,0c-9.46,0-18.92,2.45-27.39,7.34l-49.92,28.82C10.44,45.95,0,64.04,0,83.61v57.64c0,19.57,10.44,37.66,27.39,47.45l49.92,28.82c8.48,4.89,17.94,7.34,27.39,7.34s18.92-2.45,27.39-7.34l49.92-28.82c16.95-9.79,27.39-27.87,27.39-47.45v-57.64c0-19.57-10.44-37.66-27.39-47.45l-49.92-28.82c-8.48-4.89-17.94-7.34-27.39-7.34h0Z"/>
      <path class="cls-1" d="M166.27,110.53l-19.58-6.53c-15.85-5.28-28.28-17.72-33.56-33.56l-6.53-19.58c-.61-1.83-3.19-1.83-3.8,0l-6.53,19.58c-5.28,15.85-17.72,28.28-33.56,33.56l-19.58,6.53c-1.83.61-1.83,3.19,0,3.8l19.58,6.53c15.85,5.28,28.28,17.72,33.56,33.56l6.53,19.58c.61,1.83,3.19,1.83,3.8,0l6.53-19.58c5.28-15.85,17.72-28.28,33.56-33.56l19.58-6.53c1.83-.61,1.83-3.19,0-3.8Z"/>
    </g>
  </g>
</svg>