<?xml version="1.0" encoding="UTF-8"?><svg id="Layer_2" xmlns="http://www.w3.org/2000/svg" viewBox="0 0 1202.09 259.35"><g id="Layer_1-2"><g><path d="M371.91,130.39c-8.06-3.17-18.36-5.87-30.88-8.1-8.75-1.71-15.82-4.07-21.23-7.08-5.4-3-8.19-7.24-8.36-12.74-.17-5.66,2.1-10.2,6.82-13.64,4.72-3.43,10.68-5.15,17.88-5.15s13.42,2.1,19.17,6.3c4.95,3.62,8.28,8.29,9.98,14.01,.49,1.65,2,2.77,3.71,2.68l22.04-1.16c2.31-.12,3.91-2.34,3.34-4.58-2.92-11.54-9-20.93-18.23-28.19-10.38-8.15-23.12-12.22-38.21-12.22-11.32,0-21.23,1.72-29.72,5.15-8.49,3.43-15.05,8.36-19.68,14.79-4.63,6.43-6.86,14.02-6.69,22.77-.17,8.23,2.1,14.92,6.82,20.07,4.72,5.15,10.85,9.18,18.4,12.09,7.55,2.92,17.24,5.66,29.08,8.23,1.99,.33,3.74,.74,5.25,1.24,.1,.03,.21,.06,.31,.08,5.59,1.19,10.07,2.38,13.48,3.57,3.43,1.2,6.34,2.96,8.75,5.27,2.4,2.32,3.6,5.36,3.6,9.13,0,5.83-2.7,10.08-8.1,12.74-5.4,2.66-11.8,3.99-19.17,3.99-5.83,0-11.06-.98-15.7-2.96-4.63-1.97-8.36-4.8-11.19-8.49-2.26-2.95-3.9-6.31-4.9-10.08-.44-1.67-1.96-2.83-3.68-2.72l-22.44,1.38c-2.15,.13-3.72,2.09-3.39,4.22,1.17,7.62,4.07,14.39,8.68,20.33,5.4,6.95,12.69,12.31,21.87,16.08,9.17,3.77,19.59,5.66,31.26,5.66,10.29,0,19.72-1.42,28.3-4.25,8.58-2.83,15.39-7.16,20.46-12.99,5.06-5.83,7.59-13.03,7.59-21.61s-2.19-15.57-6.56-20.97c-4.37-5.4-10.59-9.69-18.65-12.86Z"/><path d="M454.96,32.75h-21.25c-2.02,0-3.65,1.64-3.65,3.65v23.57c0,2.02-1.64,3.65-3.65,3.65h-13.79c-2.02,0-3.65,1.64-3.65,3.65v15.59c0,2.02,1.64,3.65,3.65,3.65h13.79c2.02,0,3.65,1.64,3.65,3.65v69.93c0,13.21,3.47,23.16,10.42,29.85,6.95,6.69,17.11,10.03,30.49,10.03h19.76c2.02,0,3.65-1.64,3.65-3.65v-15.59c0-2.02-1.64-3.65-3.65-3.65h-16.42c-5.15,0-9.05-1.46-11.71-4.37-2.66-2.92-3.99-7.12-3.99-12.61V90.18c0-2.02,1.64-3.65,3.65-3.65h28.72c2.02,0,3.65-1.64,3.65-3.65v-15.59c0-2.02-1.64-3.65-3.65-3.65h-28.72c-2.02,0-3.65-1.64-3.65-3.65v-23.57c0-2.02-1.64-3.65-3.65-3.65Z"/><path d="M634.09,131.29c-.35-15.61-3.3-28.73-8.88-39.37-5.58-10.63-12.99-18.53-22.26-23.67s-19.64-7.72-31.13-7.72c-12.87,0-24.27,2.92-34.22,8.75-9.95,5.83-17.62,14.15-23.03,24.96-5.4,10.81-8.1,23.33-8.1,37.57s2.7,26.76,8.1,37.57c5.4,10.81,13.08,19.13,23.03,24.96,9.95,5.83,21.36,8.75,34.22,8.75,14.24,0,26.84-3.81,37.82-11.45,9.6-6.67,16.58-15.35,20.93-26.02,.94-2.32-.63-4.88-3.13-5.06l-22.55-1.56c-1.44-.1-2.81,.67-3.48,1.95-2.71,5.2-6.48,9.42-11.33,12.68-5.49,3.69-11.58,5.53-18.27,5.53-10.29,0-18.57-3.43-24.83-10.29-5.58-6.11-8.95-14.47-10.1-25.07-.23-2.14,1.48-4,3.64-4h90.05c2.06,0,3.71-1.7,3.65-3.76l-.14-4.73Zm-92.89-12.35c-2.34,0-4.06-2.17-3.57-4.46,1.88-8.7,5.43-15.66,10.66-20.89,6.09-6.09,13.93-9.13,23.54-9.13,8.4,0,15.57,2.79,21.48,8.36,5.17,4.88,8.61,12.14,10.31,21.8,.4,2.25-1.32,4.31-3.6,4.31h-58.83Z"/><path d="M690.82,174.65c-1.63-1.63-2.44-3.99-2.44-7.08V20.96c0-2.02-1.64-3.65-3.65-3.65h-21.25c-2.02,0-3.65,1.64-3.65,3.65V168.86c0,9.44,2.92,16.98,8.75,22.64,5.83,5.66,13.38,8.49,22.64,8.49h13.84c2.02,0,3.65-1.64,3.65-3.65v-15.59c0-2.02-1.64-3.65-3.65-3.65h-7.15c-3.09,0-5.45-.81-7.08-2.44Z"/><path d="M832.21,69.93c-8.75-6.26-19.55-9.39-32.42-9.39-10.81,0-19.94,2.44-27.4,7.33-3.01,1.97-5.68,4.3-8.03,6.99-2.2,2.52-6.33,1.12-6.45-2.22l-.19-5.49c-.07-1.97-1.68-3.52-3.65-3.52h-19.58c-2.02,0-3.65,1.64-3.65,3.65V234.94c0,2.02,1.64,3.65,3.65,3.65h21.25c2.02,0,3.65-1.64,3.65-3.65v-42.73c0-3.34,4.07-4.89,6.36-2.45,.02,.03,.05,.05,.07,.08,4.12,4.37,9.05,7.68,14.79,9.91,5.75,2.23,12.13,3.34,19.17,3.34,12.86,0,23.67-3.17,32.42-9.52,8.75-6.34,15.31-14.88,19.68-25.6,4.37-10.72,6.56-22.77,6.56-36.15s-2.19-25.47-6.56-36.28-10.94-19.34-19.68-25.6Zm-12.74,95.46c-5.92,9.01-14.79,13.51-26.63,13.51-7.89,0-14.5-2.19-19.81-6.56-5.32-4.37-9.31-10.12-11.96-17.24-2.66-7.12-3.99-14.88-3.99-23.29s1.33-16.17,3.99-23.29c2.66-7.12,6.65-12.87,11.96-17.24,5.31-4.37,11.92-6.56,19.81-6.56,11.66,0,20.5,4.5,26.5,13.51,6,9.01,9,20.2,9,33.58s-2.96,24.57-8.88,33.58Z"/><rect x="879.55" y="63.62" width="28.56" height="136.37" rx="3.65" ry="3.65"/><rect x="879.04" y="17.57" width="29.59" height="26.24" rx="3.65" ry="3.65"/><path d="M1005.88,60.54c-11.49,0-21.27,3.09-29.33,9.26-2.25,1.72-4.27,3.71-6.05,5.94-2.1,2.63-6.35,1.17-6.47-2.19l-.22-6.4c-.07-1.97-1.68-3.52-3.65-3.52h-18.81c-2.02,0-3.65,1.64-3.65,3.65V196.34c0,2.02,1.64,3.65,3.65,3.65h21.25c2.02,0,3.65-1.64,3.65-3.65V121.26c0-11.84,2.83-20.93,8.49-27.27,5.66-6.34,13.29-9.52,22.9-9.52s15.91,3.05,19.94,9.13c4.03,6.09,6.05,15.31,6.05,27.66v75.08c0,2.02,1.64,3.65,3.65,3.65h21.51c2.02,0,3.65-1.64,3.65-3.65V112.25c0-15.61-4.03-28.13-12.09-37.57-8.07-9.43-19.55-14.15-34.48-14.15Z"/><path d="M1157.95,173.62c-5.49,3.69-11.58,5.53-18.27,5.53-10.29,0-18.57-3.43-24.83-10.29-5.58-6.11-8.95-14.47-10.1-25.07-.23-2.14,1.48-4,3.64-4h90.05c2.06,0,3.71-1.7,3.65-3.76l-.14-4.73c-.35-15.61-3.3-28.73-8.88-39.37-5.58-10.63-12.99-18.53-22.26-23.67s-19.64-7.72-31.13-7.72c-12.87,0-24.27,2.92-34.22,8.75-9.95,5.83-17.62,14.15-23.03,24.96-5.4,10.81-8.1,23.33-8.1,37.57s2.7,26.76,8.1,37.57c5.4,10.81,13.08,19.13,23.03,24.96,9.95,5.83,21.36,8.75,34.22,8.75,14.24,0,26.84-3.81,37.82-11.45,9.6-6.67,16.58-15.35,20.93-26.02,.94-2.32-.63-4.88-3.13-5.06l-22.55-1.56c-1.44-.1-2.81,.67-3.48,1.95-2.71,5.2-6.48,9.42-11.33,12.68Zm-41.81-80.02c6.09-6.09,13.93-9.13,23.54-9.13,8.4,0,15.57,2.79,21.48,8.36,5.17,4.88,8.61,12.14,10.31,21.8,.4,2.25-1.32,4.31-3.6,4.31h-58.83c-2.34,0-4.06-2.17-3.57-4.46,1.88-8.7,5.43-15.66,10.66-20.89Z"/></g><g><path d="M117.4,40.6l-3.3,9.89c-2.67,8-8.95,14.28-16.95,16.95l-9.89,3.3c-.92,.31-.92,1.61,0,1.92l9.89,3.3c8,2.67,14.28,8.95,16.95,16.95l3.3,9.89c.31,.92,1.61,.92,1.92,0l3.3-9.89c2.67-8,8.95-14.28,16.95-16.95l9.89-3.3c.92-.31,.92-1.61,0-1.92l-9.89-3.3c-8-2.67-14.28-8.95-16.95-16.95l-3.3-9.89c-.31-.92-1.61-.92-1.92,0Z"/><path d="M214.1,48.27L141,6.07c-7-4.04-14.81-6.07-22.63-6.07s-15.63,2.02-22.64,6.07L22.63,48.27C8.63,56.36,0,71.31,0,87.48v84.4c0,16.18,8.63,31.13,22.63,39.22l11.14,6.43,61.96,35.76c7,4.05,14.82,6.07,22.64,6.07s15.63-2.02,22.63-6.07l62.03-35.8,11.07-6.39c14-8.09,22.63-23.04,22.63-39.22V87.48c0-16.17-8.63-31.12-22.63-39.21Zm-3.79,123.61c0,6.72-3.61,12.99-9.42,16.34h0c-5.64,3.26-12.83,1.49-16.35-4-9.05-14.11-19.29-27.47-30.64-39.92-14.08-15.45-28.14-28.47-35.54-28.47-6.97,0-19.83,11.53-33.05,25.75-12.31,13.25-23.37,27.54-33.07,42.69-3.51,5.48-10.7,7.23-16.34,3.98l-.05-.03c-5.84-3.37-9.44-9.61-9.44-16.35V87.48c0-6.72,3.61-12.98,9.42-16.33L108.94,28.94c2.86-1.65,6.12-2.53,9.43-2.53s6.56,.87,9.42,2.53l73.09,42.19c5.82,3.36,9.43,9.62,9.43,16.34v84.4Z"/></g></g></svg>